<?xml version="1.0" encoding="iso-8859-1"?>
<!-- Generator: Adobe Illustrator 19.0.0, SVG Export Plug-In . SVG Version: 6.00 Build 0)  -->
<svg version="1.1" id="Layer_1" xmlns="http://www.w3.org/2000/svg" xmlns:xlink="http://www.w3.org/1999/xlink" x="0px" y="0px"
	 viewBox="0 0 511.999 511.999" style="enable-background:new 0 0 511.999 511.999;" xml:space="preserve">
<polygon style="fill:#298983;" points="378.178,186.023 345.665,153.794 227.524,154.312 227.809,219.056 345.948,218.537 "/>
<rect x="336.662" y="88.026" transform="matrix(-0.7102 -0.704 0.704 -0.7102 566.6821 474.0726)" style="fill:#A5F2E5;" width="88.51" height="64.747"/>
<path style="fill:#62D9C7;" d="M431.016,247.649l61.471-62.013l-45.982-45.579L327.352,260.261l45.982,45.579l26.164-26.396
	c3.143-3.171,8.26-3.193,11.43-0.051l20.138-20.315C427.896,255.936,427.873,250.818,431.016,247.649z"/>
<path d="M511.994,185.434c0-0.039,0.005-0.077,0.005-0.114c-0.01-2.143-0.871-4.196-2.392-5.705L377.921,49.082
	c-3.169-3.141-8.287-3.121-11.43,0.051l-56.96,57.463c-1.509,1.523-2.352,3.582-2.342,5.726c0.01,2.144,0.871,4.195,2.392,5.704
	l19.848,19.674l-110.057,0.484c-2.143,0.01-4.196,0.87-5.705,2.392c-1.509,1.523-2.352,3.582-2.342,5.726l0.356,80.909
	c0.019,4.452,3.635,8.047,8.083,8.047c0.012,0,0.024,0,0.037,0l110.057-0.484l-19.674,19.848c-3.142,3.169-3.12,8.287,0.051,11.43
	l57.463,56.961c1.576,1.563,3.633,2.342,5.69,2.342c2.08,0,4.16-0.799,5.741-2.392l31.855-32.135
	c3.143-3.169,3.12-8.287-0.051-11.43l0,0c-3.169-3.143-8.287-3.121-11.43,0.051l-26.164,26.396l-45.982-45.579l119.148-120.208
	l45.982,45.579l-61.471,62.013c-3.143,3.169-3.12,8.287,0.051,11.43l0,0c3.169,3.143,8.287,3.121,11.43-0.051l67.161-67.754
	c1.509-1.523,2.352-3.582,2.342-5.726C512,185.512,511.995,185.473,511.994,185.434z M389.558,174.542l-62.858-62.307l45.579-45.981
	l62.858,62.307L389.558,174.542z M227.524,154.312l118.141-0.519l32.514,32.229l-32.23,32.515l-118.139,0.519L227.524,154.312z"/>
<polygon style="fill:#298983;" points="284.192,292.939 166.051,293.459 133.822,325.973 166.337,358.204 284.476,357.684 "/>
<path d="M292.239,276.74c-0.012,0-0.024,0-0.037,0l-110.057,0.484l19.674-19.848c3.143-3.169,3.12-8.287-0.051-11.43l-57.463-56.96
	c-3.169-3.143-8.287-3.121-11.43,0.051l-31.855,32.135c-3.143,3.169-3.12,8.287,0.051,11.43l0,0
	c3.169,3.143,8.287,3.121,11.43-0.051l26.164-26.396l45.982,45.579L65.495,371.941l-45.982-45.579l61.471-62.013
	c3.143-3.169,3.12-8.287-0.051-11.43l0,0c-3.169-3.143-8.287-3.121-11.43,0.051L2.342,320.723c-1.509,1.523-2.351,3.582-2.342,5.726
	c0,0.039,0.005,0.077,0.006,0.115c0,0.039-0.005,0.077-0.005,0.114c0.01,2.144,0.871,4.197,2.392,5.705l131.685,130.534
	c1.576,1.563,3.633,2.342,5.69,2.342c2.08,0,4.16-0.799,5.741-2.392l56.96-57.463c1.509-1.523,2.352-3.582,2.342-5.726
	c-0.01-2.144-0.871-4.197-2.392-5.705L182.571,374.3l110.057-0.484c2.144-0.01,4.197-0.871,5.705-2.392
	c1.509-1.522,2.352-3.582,2.342-5.726l-0.356-80.909C300.301,280.335,296.686,276.74,292.239,276.74z M76.861,383.435l45.58-45.982
	l62.858,62.307l-45.579,45.982L76.861,383.435z M133.822,325.973l32.23-32.515l118.139-0.519l0.285,64.745l-118.139,0.519
	L133.822,325.973z"/>
<rect x="98.701" y="347.344" transform="matrix(-0.704 0.7102 -0.7102 -0.704 501.4644 574.1959)" style="fill:#A5F2E5;" width="64.747" height="88.51"/>
<path style="fill:#62D9C7;" d="M80.984,264.347L19.514,326.36l45.982,45.579l119.153-120.205l-45.982-45.579l-26.164,26.396
	c-3.144,3.171-8.261,3.192-11.43,0.051l0,0l-20.139,20.315C84.104,256.059,84.127,261.177,80.984,264.347z"/>
<g>
</g>
<g>
</g>
<g>
</g>
<g>
</g>
<g>
</g>
<g>
</g>
<g>
</g>
<g>
</g>
<g>
</g>
<g>
</g>
<g>
</g>
<g>
</g>
<g>
</g>
<g>
</g>
<g>
</g>
</svg>
